<svg xmlns="http://www.w3.org/2000/svg" width="2400" height="3200" viewBox="0 0 2400 3200">
  <title>상대역 합 시험</title>
  <desc>웹툰 스튜디오 공통 배우 캐스팅 표준 v2.0 편집 템플릿</desc>
  <defs>
    <linearGradient id="photo" x1="0" y1="0" x2="1" y2="1"><stop offset="0" stop-color="#DDD7CC"/><stop offset="1" stop-color="#BEB6A9"/></linearGradient>
    <linearGradient id="dark" x1="0" y1="0" x2="1" y2="1"><stop offset="0" stop-color="#191A17"/><stop offset="1" stop-color="#30312D"/></linearGradient>
    <pattern id="minorGrid" width="10" height="10" patternUnits="userSpaceOnUse"><path d="M 0 0 H 2040" fill="none" stroke="#D8D1C6" stroke-width="1" opacity=".42"/></pattern>
    <pattern id="majorGrid" width="100" height="100" patternUnits="userSpaceOnUse"><path d="M 0 0 H 2040" fill="none" stroke="#AFA79A" stroke-width="2" opacity=".62"/></pattern>
    <filter id="shadow" x="-20%" y="-20%" width="140%" height="140%"><feDropShadow dx="0" dy="12" stdDeviation="14" flood-color="#000" flood-opacity=".10"/></filter>
    <style>
      @font-face { font-family: '캐스팅고딕'; src: url('fonts/NotoSansKR-400.woff2') format('woff2'); font-weight: 400; }
      @font-face { font-family: '캐스팅고딕'; src: url('fonts/NotoSansKR-700.woff2') format('woff2'); font-weight: 700; }
      text { font-family: '캐스팅고딕', 'Noto Sans KR Thin', 'Noto Sans KR', 'Apple SD Gothic Neo', 'Malgun Gothic', sans-serif; fill: #181916; }
      .title { font-size: 76px; font-weight: 700; letter-spacing: -3px; }
      .sub { font-size: 29px; font-weight: 400; letter-spacing: -.6px; }
      .section { font-size: 34px; font-weight: 700; letter-spacing: -1px; }
      .label { font-size: 25px; font-weight: 700; }
      .body { font-size: 25px; font-weight: 400; }
      .small { font-size: 20px; font-weight: 400; fill: #777267; }
      .tiny { font-size: 17px; font-weight: 400; fill: #777267; }
      .number { font-size: 23px; font-weight: 700; font-variant-numeric: tabular-nums; }
      .white { fill: #FFFDF9; }
      .wine { fill: #7D3038; }
    </style>
  </defs>
  <rect x="0" y="0" width="2400" height="3200" fill="#F4F1EA"/>
  <rect x="0" y="0" width="2400" height="320" fill="url(#dark)"/>
  <rect x="90" y="72" width="12" height="154" rx="6" fill="#A65A5E"/>
  <text x="140" y="145" class="title white" >상대역 합 시험</text>
  <text x="142" y="214" class="sub white" >두 배우의 실제 키 차이와 시선·거리·주도권을 한 보드에서 판정합니다.</text>
  <rect x="2070" y="82" width="238" height="86" rx="43" fill="#7D3038"/>
  <text x="2189" y="139" class="number white" text-anchor="middle">06 / 06</text>
  <text x="2308" y="228" class="small white" text-anchor="end" opacity=".72">관계·긴장</text>
<rect x="90" y="390" width="1460" height="2050" rx="10" fill="#FFFDF9" stroke="#C9C1B4" stroke-width="2"/><rect x="130" y="410" width="1380" height="2000" fill="url(#minorGrid)"/><rect x="130" y="410" width="1380" height="2000" fill="url(#majorGrid)"/><line x1="130" y1="2410" x2="1510" y2="2410" stroke="#7D3038" stroke-width="4" opacity="0.58"/><text x="1498" y="2400" class="number wine" text-anchor="end">0</text><line x1="130" y1="2310" x2="1510" y2="2310" stroke="#C9C1B4" stroke-width="2" opacity="0.65"/><text x="1498" y="2300" class="tiny" text-anchor="end">10</text><line x1="130" y1="2210" x2="1510" y2="2210" stroke="#C9C1B4" stroke-width="2" opacity="0.65"/><text x="1498" y="2200" class="tiny" text-anchor="end">20</text><line x1="130" y1="2110" x2="1510" y2="2110" stroke="#C9C1B4" stroke-width="2" opacity="0.65"/><text x="1498" y="2100" class="tiny" text-anchor="end">30</text><line x1="130" y1="2010" x2="1510" y2="2010" stroke="#C9C1B4" stroke-width="2" opacity="0.65"/><text x="1498" y="2000" class="tiny" text-anchor="end">40</text><line x1="130" y1="1910" x2="1510" y2="1910" stroke="#7D3038" stroke-width="4" opacity="0.58"/><text x="1498" y="1900" class="number wine" text-anchor="end">50</text><line x1="130" y1="1810" x2="1510" y2="1810" stroke="#C9C1B4" stroke-width="2" opacity="0.65"/><text x="1498" y="1800" class="tiny" text-anchor="end">60</text><line x1="130" y1="1710" x2="1510" y2="1710" stroke="#C9C1B4" stroke-width="2" opacity="0.65"/><text x="1498" y="1700" class="tiny" text-anchor="end">70</text><line x1="130" y1="1610" x2="1510" y2="1610" stroke="#C9C1B4" stroke-width="2" opacity="0.65"/><text x="1498" y="1600" class="tiny" text-anchor="end">80</text><line x1="130" y1="1510" x2="1510" y2="1510" stroke="#C9C1B4" stroke-width="2" opacity="0.65"/><text x="1498" y="1500" class="tiny" text-anchor="end">90</text><line x1="130" y1="1410" x2="1510" y2="1410" stroke="#7D3038" stroke-width="4" opacity="0.58"/><text x="1498" y="1400" class="number wine" text-anchor="end">100</text><line x1="130" y1="1310" x2="1510" y2="1310" stroke="#C9C1B4" stroke-width="2" opacity="0.65"/><text x="1498" y="1300" class="tiny" text-anchor="end">110</text><line x1="130" y1="1210" x2="1510" y2="1210" stroke="#C9C1B4" stroke-width="2" opacity="0.65"/><text x="1498" y="1200" class="tiny" text-anchor="end">120</text><line x1="130" y1="1110" x2="1510" y2="1110" stroke="#C9C1B4" stroke-width="2" opacity="0.65"/><text x="1498" y="1100" class="tiny" text-anchor="end">130</text><line x1="130" y1="1010" x2="1510" y2="1010" stroke="#C9C1B4" stroke-width="2" opacity="0.65"/><text x="1498" y="1000" class="tiny" text-anchor="end">140</text><line x1="130" y1="910" x2="1510" y2="910" stroke="#7D3038" stroke-width="4" opacity="0.58"/><text x="1498" y="900" class="number wine" text-anchor="end">150</text><line x1="130" y1="810" x2="1510" y2="810" stroke="#C9C1B4" stroke-width="2" opacity="0.65"/><text x="1498" y="800" class="tiny" text-anchor="end">160</text><line x1="130" y1="710" x2="1510" y2="710" stroke="#C9C1B4" stroke-width="2" opacity="0.65"/><text x="1498" y="700" class="tiny" text-anchor="end">170</text><line x1="130" y1="610" x2="1510" y2="610" stroke="#C9C1B4" stroke-width="2" opacity="0.65"/><text x="1498" y="600" class="tiny" text-anchor="end">180</text><line x1="130" y1="510" x2="1510" y2="510" stroke="#C9C1B4" stroke-width="2" opacity="0.65"/><text x="1498" y="500" class="tiny" text-anchor="end">190</text><line x1="130" y1="410" x2="1510" y2="410" stroke="#7D3038" stroke-width="4" opacity="0.58"/><text x="1498" y="400" class="number wine" text-anchor="end">200</text><text x="142" y="388" class="tiny" >센티미터</text><line x1="130" y1="2410" x2="1510" y2="2410" stroke="#181916" stroke-width="6"/><g fill="#2D2F2A" opacity="0.31">
    <ellipse cx="610" cy="856.8571428571429" rx="94.28571428571428" ry="123.42857142857142"/>
    <path d="M 480.4 987.1428571428571 Q 430 1064.2857142857142 472.8571428571429 1535.7142857142858 Q 483.14285714285717 1681.4285714285713 515.7142857142858 1775.7142857142856 L 572.2857142857143 1818.5714285714284 L 647.7142857142857 1818.5714285714284 L 704.2857142857142 1775.7142857142856 Q 736.8571428571429 1681.4285714285713 747.1428571428571 1535.7142857142858 Q 790 1064.2857142857142 739.6 987.1428571428571 Z"/>
    <path d="M 487.6 1047.142857142857 Q 370 1381.4285714285713 404.28571428571433 1698.5714285714284 Q 424.8571428571429 1741.4285714285713 445.42857142857144 1695.142857142857 L 486.57142857142856 1158.5714285714284 Z"/>
    <path d="M 732.4 1047.142857142857 Q 850 1381.4285714285713 815.7142857142857 1698.5714285714284 Q 795.1428571428571 1741.4285714285713 774.5714285714286 1695.142857142857 L 733.4285714285714 1158.5714285714284 Z"/>
    <path d="M 508.8571428571429 1775.7142857142856 Q 495.14285714285717 2084.285714285714 527.7142857142858 2362 Q 562 2413.4285714285716 601.4285714285714 2399.714285714286 L 580.8571428571429 2084.285714285714 L 603.1428571428571 1818.5714285714284 Z"/>
    <path d="M 711.1428571428571 1775.7142857142856 Q 724.8571428571429 2084.285714285714 692.2857142857142 2362 Q 658 2413.4285714285716 618.5714285714286 2399.714285714286 L 639.1428571428571 2084.285714285714 L 616.8571428571429 1818.5714285714284 Z"/>
  </g><g fill="#7D3038" opacity="0.32">
    <ellipse cx="1040" cy="745.9183673469388" rx="101.0204081632653" ry="132.24489795918367"/>
    <path d="M 901.1428571428571 885.5102040816327 Q 847.1428571428571 968.1632653061224 893.0612244897959 1473.2653061224491 Q 904.0816326530612 1629.387755102041 938.9795918367347 1730.4081632653063 L 999.5918367346939 1776.326530612245 L 1080.408163265306 1776.326530612245 L 1141.0204081632653 1730.4081632653063 Q 1175.9183673469388 1629.387755102041 1186.938775510204 1473.2653061224491 Q 1232.857142857143 968.1632653061224 1178.857142857143 885.5102040816327 Z"/>
    <path d="M 908.8571428571429 949.795918367347 Q 782.8571428571429 1307.9591836734694 819.5918367346939 1647.7551020408164 Q 841.6326530612245 1693.6734693877552 863.6734693877551 1644.0816326530614 L 907.7551020408164 1069.1836734693877 Z"/>
    <path d="M 1171.142857142857 949.795918367347 Q 1297.142857142857 1307.9591836734694 1260.408163265306 1647.7551020408164 Q 1238.3673469387754 1693.6734693877552 1216.3265306122448 1644.0816326530614 L 1172.2448979591836 1069.1836734693877 Z"/>
    <path d="M 931.6326530612245 1730.4081632653063 Q 916.9387755102041 2061.0204081632655 951.8367346938776 2358.5714285714284 Q 988.5714285714286 2413.673469387755 1030.8163265306123 2398.9795918367345 L 1008.7755102040817 2061.0204081632655 L 1032.6530612244899 1776.326530612245 Z"/>
    <path d="M 1148.3673469387754 1730.4081632653063 Q 1163.061224489796 2061.0204081632655 1128.1632653061224 2358.5714285714284 Q 1091.4285714285713 2413.673469387755 1049.1836734693877 2398.9795918367345 L 1071.2244897959183 2061.0204081632655 L 1047.3469387755101 1776.326530612245 Z"/>
  </g><line x1="825" y1="630" x2="825" y2="2410" stroke="#7D3038" stroke-width="4" stroke-dasharray="18 14" opacity=".65"/><rect x="390" y="2288" width="440" height="72" rx="36" fill="#181916"/><text x="610" y="2336" class="label white" text-anchor="middle">배우 가  ＿＿＿cm</text><rect x="840" y="2288" width="440" height="72" rx="36" fill="#7D3038"/><text x="1060" y="2336" class="label white" text-anchor="middle">배우 나  ＿＿＿cm</text><rect x="1590" y="390" width="720" height="2050" rx="10" fill="#181916"/><text x="1640" y="480" class="section white" >관계 판정</text><text x="1640" y="575" class="small white" >실제 키 차이</text><text x="1640" y="632" class="label white" >＿＿＿cm</text><line x1="1640" y1="660" x2="2260" y2="660" stroke="#FFFDF9" stroke-width="1" opacity=".22"/><text x="1640" y="765" class="small white" >눈높이 차이</text><text x="1640" y="822" class="label white" >＿＿＿cm</text><line x1="1640" y1="850" x2="2260" y2="850" stroke="#FFFDF9" stroke-width="1" opacity=".22"/><text x="1640" y="955" class="small white" >기본 거리</text><text x="1640" y="1012" class="label white" >＿＿＿cm</text><line x1="1640" y1="1040" x2="2260" y2="1040" stroke="#FFFDF9" stroke-width="1" opacity=".22"/><text x="1640" y="1145" class="small white" >먼저 다가감</text><text x="1640" y="1202" class="label white" >가 / 나</text><line x1="1640" y1="1230" x2="2260" y2="1230" stroke="#FFFDF9" stroke-width="1" opacity=".22"/><text x="1640" y="1335" class="small white" >시선 주도</text><text x="1640" y="1392" class="label white" >가 / 나</text><line x1="1640" y1="1420" x2="2260" y2="1420" stroke="#FFFDF9" stroke-width="1" opacity=".22"/><text x="1640" y="1525" class="small white" >긴장 단계</text><text x="1640" y="1582" class="label white" >1  2  3  4  5</text><line x1="1640" y1="1610" x2="2260" y2="1610" stroke="#FFFDF9" stroke-width="1" opacity=".22"/><text x="1640" y="1715" class="small white" >신뢰 단계</text><text x="1640" y="1772" class="label white" >1  2  3  4  5</text><line x1="1640" y1="1800" x2="2260" y2="1800" stroke="#FFFDF9" stroke-width="1" opacity=".22"/><text x="1640" y="1905" class="small white" >최종 판정</text><text x="1640" y="1962" class="label white" >보류 / 통과</text><line x1="1640" y1="1990" x2="2260" y2="1990" stroke="#FFFDF9" stroke-width="1" opacity=".22"/><g>
    <rect x="90" y="2490" width="525" height="500" rx="8" fill="url(#photo)" stroke="#C9C1B4" stroke-width="2"/>
    <rect x="114" y="2514" width="477" height="398" rx="4" fill="none" stroke="#FFFDF9" stroke-width="2" stroke-dasharray="12 13" opacity=".72"/>
    <g fill="none" stroke="#7D3038" stroke-width="4" opacity=".9">
    <path d="M 114 2540 V 2514 H 140"/><path d="M 565 2514 H 591 V 2540"/>
    <path d="M 114 2886 V 2912 H 140"/><path d="M 565 2912 H 591 V 2886"/>
  </g>
    <g fill="#2D2F2A" opacity="0.23">
    <ellipse cx="294.75" cy="2618.5514285714285" rx="17.207142857142856" ry="22.525714285714283"/>
    <path d="M 271.098 2642.3285714285716 Q 261.9 2656.4071428571433 269.7214285714286 2742.442857142857 Q 271.5985714285714 2769.035714285714 277.54285714285714 2786.2428571428572 L 287.8671428571429 2794.0642857142857 L 301.6328571428571 2794.0642857142857 L 311.95714285714286 2786.2428571428572 Q 317.9014285714286 2769.035714285714 319.7785714285714 2742.442857142857 Q 327.6 2656.4071428571433 318.402 2642.3285714285716 Z"/>
    <path d="M 272.412 2653.2785714285715 Q 250.95 2714.2857142857147 257.20714285714286 2772.1642857142856 Q 260.9614285714286 2779.985714285714 264.7157142857143 2771.5385714285712 L 272.2242857142857 2673.614285714286 Z"/>
    <path d="M 317.088 2653.2785714285715 Q 338.55 2714.2857142857147 332.29285714285714 2772.1642857142856 Q 328.5385714285714 2779.985714285714 324.7842857142857 2771.5385714285712 L 317.2757142857143 2673.614285714286 Z"/>
    <path d="M 276.2914285714286 2786.2428571428572 Q 273.78857142857146 2842.557142857143 279.73285714285714 2893.24 Q 285.99 2902.6257142857144 293.1857142857143 2900.1228571428574 L 289.43142857142857 2842.557142857143 L 293.49857142857144 2794.0642857142857 Z"/>
    <path d="M 313.2085714285714 2786.2428571428572 Q 315.71142857142854 2842.557142857143 309.76714285714286 2893.24 Q 303.51 2902.6257142857144 296.3142857142857 2900.1228571428574 L 300.06857142857143 2842.557142857143 L 296.00142857142856 2794.0642857142857 Z"/>
  </g><g fill="#7D3038" opacity="0.25">
    <ellipse cx="410.25" cy="2586.157306122449" rx="19.173673469387754" ry="25.10008163265306"/>
    <path d="M 383.89491428571426 2612.651836734694 Q 373.6457142857143 2628.339387755102 382.36102040816326 2724.207755102041 Q 384.45269387755104 2753.8397959183676 391.0763265306122 2773.0134693877553 L 402.5805306122449 2781.7287755102043 L 417.9194693877551 2781.7287755102043 L 429.4236734693878 2773.0134693877553 Q 436.04730612244896 2753.8397959183676 438.13897959183674 2724.207755102041 Q 446.8542857142857 2628.339387755102 436.60508571428574 2612.651836734694 Z"/>
    <path d="M 385.3590857142857 2624.8532653061225 Q 361.44428571428574 2692.8326530612244 368.4165306122449 2757.325918367347 Q 372.5998775510204 2766.041224489796 376.78322448979594 2756.628693877551 L 385.1499183673469 2647.51306122449 Z"/>
    <path d="M 435.1409142857143 2624.8532653061225 Q 459.05571428571426 2692.8326530612244 452.0834693877551 2757.325918367347 Q 447.9001224489796 2766.041224489796 443.71677551020406 2756.628693877551 L 435.3500816326531 2647.51306122449 Z"/>
    <path d="M 389.6818775510204 2773.0134693877553 Q 386.8929795918367 2835.763673469388 393.51661224489794 2892.2388571428573 Q 400.4888571428571 2902.697224489796 408.5069387755102 2899.908326530612 L 404.3235918367347 2835.763673469388 L 408.85555102040814 2781.7287755102043 Z"/>
    <path d="M 430.8181224489796 2773.0134693877553 Q 433.6070204081633 2835.763673469388 426.98338775510206 2892.2388571428573 Q 420.0111428571429 2902.697224489796 411.9930612244898 2899.908326530612 L 416.1764081632653 2835.763673469388 L 411.64444897959186 2781.7287755102043 Z"/>
  </g>
    <rect x="90" y="2928" width="525" height="62" fill="#FFFDF9" opacity=".94"/>
    <text x="352.5" y="2968" class="label" text-anchor="middle">눈맞춤</text>
  </g><g>
    <rect x="645" y="2490" width="525" height="500" rx="8" fill="url(#photo)" stroke="#C9C1B4" stroke-width="2"/>
    <rect x="669" y="2514" width="477" height="398" rx="4" fill="none" stroke="#FFFDF9" stroke-width="2" stroke-dasharray="12 13" opacity=".72"/>
    <g fill="none" stroke="#7D3038" stroke-width="4" opacity=".9">
    <path d="M 669 2540 V 2514 H 695"/><path d="M 1120 2514 H 1146 V 2540"/>
    <path d="M 669 2886 V 2912 H 695"/><path d="M 1120 2912 H 1146 V 2886"/>
  </g>
    <g fill="#2D2F2A" opacity="0.23">
    <ellipse cx="849.75" cy="2618.5514285714285" rx="17.207142857142856" ry="22.525714285714283"/>
    <path d="M 826.098 2642.3285714285716 Q 816.9 2656.4071428571433 824.7214285714285 2742.442857142857 Q 826.5985714285714 2769.035714285714 832.5428571428572 2786.2428571428572 L 842.8671428571429 2794.0642857142857 L 856.6328571428571 2794.0642857142857 L 866.9571428571428 2786.2428571428572 Q 872.9014285714286 2769.035714285714 874.7785714285715 2742.442857142857 Q 882.6 2656.4071428571433 873.402 2642.3285714285716 Z"/>
    <path d="M 827.412 2653.2785714285715 Q 805.95 2714.2857142857147 812.2071428571429 2772.1642857142856 Q 815.9614285714285 2779.985714285714 819.7157142857143 2771.5385714285712 L 827.2242857142858 2673.614285714286 Z"/>
    <path d="M 872.088 2653.2785714285715 Q 893.55 2714.2857142857147 887.2928571428571 2772.1642857142856 Q 883.5385714285715 2779.985714285714 879.7842857142857 2771.5385714285712 L 872.2757142857142 2673.614285714286 Z"/>
    <path d="M 831.2914285714286 2786.2428571428572 Q 828.7885714285715 2842.557142857143 834.7328571428571 2893.24 Q 840.99 2902.6257142857144 848.1857142857143 2900.1228571428574 L 844.4314285714286 2842.557142857143 L 848.4985714285714 2794.0642857142857 Z"/>
    <path d="M 868.2085714285714 2786.2428571428572 Q 870.7114285714285 2842.557142857143 864.7671428571429 2893.24 Q 858.51 2902.6257142857144 851.3142857142857 2900.1228571428574 L 855.0685714285714 2842.557142857143 L 851.0014285714286 2794.0642857142857 Z"/>
  </g><g fill="#7D3038" opacity="0.25">
    <ellipse cx="965.25" cy="2586.157306122449" rx="19.173673469387754" ry="25.10008163265306"/>
    <path d="M 938.8949142857143 2612.651836734694 Q 928.6457142857142 2628.339387755102 937.3610204081633 2724.207755102041 Q 939.452693877551 2753.8397959183676 946.0763265306123 2773.0134693877553 L 957.5805306122448 2781.7287755102043 L 972.9194693877552 2781.7287755102043 L 984.4236734693877 2773.0134693877553 Q 991.047306122449 2753.8397959183676 993.1389795918367 2724.207755102041 Q 1001.8542857142858 2628.339387755102 991.6050857142857 2612.651836734694 Z"/>
    <path d="M 940.3590857142857 2624.8532653061225 Q 916.4442857142857 2692.8326530612244 923.4165306122449 2757.325918367347 Q 927.5998775510204 2766.041224489796 931.7832244897959 2756.628693877551 L 940.1499183673469 2647.51306122449 Z"/>
    <path d="M 990.1409142857143 2624.8532653061225 Q 1014.0557142857143 2692.8326530612244 1007.0834693877551 2757.325918367347 Q 1002.9001224489796 2766.041224489796 998.7167755102041 2756.628693877551 L 990.3500816326531 2647.51306122449 Z"/>
    <path d="M 944.6818775510204 2773.0134693877553 Q 941.8929795918367 2835.763673469388 948.5166122448979 2892.2388571428573 Q 955.4888571428571 2902.697224489796 963.5069387755102 2899.908326530612 L 959.3235918367347 2835.763673469388 L 963.8555510204081 2781.7287755102043 Z"/>
    <path d="M 985.8181224489796 2773.0134693877553 Q 988.6070204081633 2835.763673469388 981.9833877551021 2892.2388571428573 Q 975.0111428571429 2902.697224489796 966.9930612244898 2899.908326530612 L 971.1764081632653 2835.763673469388 L 966.6444489795919 2781.7287755102043 Z"/>
  </g>
    <rect x="645" y="2928" width="525" height="62" fill="#FFFDF9" opacity=".94"/>
    <text x="907.5" y="2968" class="label" text-anchor="middle">한 걸음 거리</text>
  </g><g>
    <rect x="1200" y="2490" width="525" height="500" rx="8" fill="url(#photo)" stroke="#C9C1B4" stroke-width="2"/>
    <rect x="1224" y="2514" width="477" height="398" rx="4" fill="none" stroke="#FFFDF9" stroke-width="2" stroke-dasharray="12 13" opacity=".72"/>
    <g fill="none" stroke="#7D3038" stroke-width="4" opacity=".9">
    <path d="M 1224 2540 V 2514 H 1250"/><path d="M 1675 2514 H 1701 V 2540"/>
    <path d="M 1224 2886 V 2912 H 1250"/><path d="M 1675 2912 H 1701 V 2886"/>
  </g>
    <g fill="#2D2F2A" opacity="0.23">
    <ellipse cx="1404.75" cy="2618.5514285714285" rx="17.207142857142856" ry="22.525714285714283"/>
    <path d="M 1381.098 2642.3285714285716 Q 1371.9 2656.4071428571433 1379.7214285714285 2742.442857142857 Q 1381.5985714285714 2769.035714285714 1387.5428571428572 2786.2428571428572 L 1397.8671428571429 2794.0642857142857 L 1411.6328571428571 2794.0642857142857 L 1421.9571428571428 2786.2428571428572 Q 1427.9014285714286 2769.035714285714 1429.7785714285715 2742.442857142857 Q 1437.6 2656.4071428571433 1428.402 2642.3285714285716 Z"/>
    <path d="M 1382.412 2653.2785714285715 Q 1360.95 2714.2857142857147 1367.2071428571428 2772.1642857142856 Q 1370.9614285714285 2779.985714285714 1374.7157142857143 2771.5385714285712 L 1382.2242857142858 2673.614285714286 Z"/>
    <path d="M 1427.088 2653.2785714285715 Q 1448.55 2714.2857142857147 1442.2928571428572 2772.1642857142856 Q 1438.5385714285715 2779.985714285714 1434.7842857142857 2771.5385714285712 L 1427.2757142857142 2673.614285714286 Z"/>
    <path d="M 1386.2914285714285 2786.2428571428572 Q 1383.7885714285715 2842.557142857143 1389.7328571428573 2893.24 Q 1395.99 2902.6257142857144 1403.1857142857143 2900.1228571428574 L 1399.4314285714286 2842.557142857143 L 1403.4985714285715 2794.0642857142857 Z"/>
    <path d="M 1423.2085714285715 2786.2428571428572 Q 1425.7114285714285 2842.557142857143 1419.7671428571427 2893.24 Q 1413.51 2902.6257142857144 1406.3142857142857 2900.1228571428574 L 1410.0685714285714 2842.557142857143 L 1406.0014285714285 2794.0642857142857 Z"/>
  </g><g fill="#7D3038" opacity="0.25">
    <ellipse cx="1520.25" cy="2586.157306122449" rx="19.173673469387754" ry="25.10008163265306"/>
    <path d="M 1493.8949142857143 2612.651836734694 Q 1483.6457142857143 2628.339387755102 1492.3610204081633 2724.207755102041 Q 1494.452693877551 2753.8397959183676 1501.0763265306123 2773.0134693877553 L 1512.580530612245 2781.7287755102043 L 1527.919469387755 2781.7287755102043 L 1539.4236734693877 2773.0134693877553 Q 1546.047306122449 2753.8397959183676 1548.1389795918367 2724.207755102041 Q 1556.8542857142857 2628.339387755102 1546.6050857142857 2612.651836734694 Z"/>
    <path d="M 1495.3590857142858 2624.8532653061225 Q 1471.4442857142858 2692.8326530612244 1478.416530612245 2757.325918367347 Q 1482.5998775510204 2766.041224489796 1486.7832244897959 2756.628693877551 L 1495.149918367347 2647.51306122449 Z"/>
    <path d="M 1545.1409142857142 2624.8532653061225 Q 1569.0557142857142 2692.8326530612244 1562.083469387755 2757.325918367347 Q 1557.9001224489796 2766.041224489796 1553.7167755102041 2756.628693877551 L 1545.350081632653 2647.51306122449 Z"/>
    <path d="M 1499.6818775510203 2773.0134693877553 Q 1496.8929795918368 2835.763673469388 1503.516612244898 2892.2388571428573 Q 1510.4888571428571 2902.697224489796 1518.5069387755102 2899.908326530612 L 1514.3235918367347 2835.763673469388 L 1518.8555510204083 2781.7287755102043 Z"/>
    <path d="M 1540.8181224489797 2773.0134693877553 Q 1543.6070204081632 2835.763673469388 1536.983387755102 2892.2388571428573 Q 1530.0111428571429 2902.697224489796 1521.9930612244898 2899.908326530612 L 1526.1764081632653 2835.763673469388 L 1521.6444489795917 2781.7287755102043 Z"/>
  </g>
    <rect x="1200" y="2928" width="525" height="62" fill="#FFFDF9" opacity=".94"/>
    <text x="1462.5" y="2968" class="label" text-anchor="middle">손을 뻗기 직전</text>
  </g><g>
    <rect x="1755" y="2490" width="525" height="500" rx="8" fill="url(#photo)" stroke="#C9C1B4" stroke-width="2"/>
    <rect x="1779" y="2514" width="477" height="398" rx="4" fill="none" stroke="#FFFDF9" stroke-width="2" stroke-dasharray="12 13" opacity=".72"/>
    <g fill="none" stroke="#7D3038" stroke-width="4" opacity=".9">
    <path d="M 1779 2540 V 2514 H 1805"/><path d="M 2230 2514 H 2256 V 2540"/>
    <path d="M 1779 2886 V 2912 H 1805"/><path d="M 2230 2912 H 2256 V 2886"/>
  </g>
    <g fill="#2D2F2A" opacity="0.23">
    <ellipse cx="1959.75" cy="2618.5514285714285" rx="17.207142857142856" ry="22.525714285714283"/>
    <path d="M 1936.098 2642.3285714285716 Q 1926.9 2656.4071428571433 1934.7214285714285 2742.442857142857 Q 1936.5985714285714 2769.035714285714 1942.5428571428572 2786.2428571428572 L 1952.8671428571429 2794.0642857142857 L 1966.6328571428571 2794.0642857142857 L 1976.9571428571428 2786.2428571428572 Q 1982.9014285714286 2769.035714285714 1984.7785714285715 2742.442857142857 Q 1992.6 2656.4071428571433 1983.402 2642.3285714285716 Z"/>
    <path d="M 1937.412 2653.2785714285715 Q 1915.95 2714.2857142857147 1922.2071428571428 2772.1642857142856 Q 1925.9614285714285 2779.985714285714 1929.7157142857143 2771.5385714285712 L 1937.2242857142858 2673.614285714286 Z"/>
    <path d="M 1982.088 2653.2785714285715 Q 2003.55 2714.2857142857147 1997.2928571428572 2772.1642857142856 Q 1993.5385714285715 2779.985714285714 1989.7842857142857 2771.5385714285712 L 1982.2757142857142 2673.614285714286 Z"/>
    <path d="M 1941.2914285714285 2786.2428571428572 Q 1938.7885714285715 2842.557142857143 1944.7328571428573 2893.24 Q 1950.99 2902.6257142857144 1958.1857142857143 2900.1228571428574 L 1954.4314285714286 2842.557142857143 L 1958.4985714285715 2794.0642857142857 Z"/>
    <path d="M 1978.2085714285715 2786.2428571428572 Q 1980.7114285714285 2842.557142857143 1974.7671428571427 2893.24 Q 1968.51 2902.6257142857144 1961.3142857142857 2900.1228571428574 L 1965.0685714285714 2842.557142857143 L 1961.0014285714285 2794.0642857142857 Z"/>
  </g><g fill="#7D3038" opacity="0.25">
    <ellipse cx="2075.25" cy="2586.157306122449" rx="19.173673469387754" ry="25.10008163265306"/>
    <path d="M 2048.894914285714 2612.651836734694 Q 2038.6457142857143 2628.339387755102 2047.3610204081633 2724.207755102041 Q 2049.452693877551 2753.8397959183676 2056.0763265306123 2773.0134693877553 L 2067.5805306122447 2781.7287755102043 L 2082.9194693877553 2781.7287755102043 L 2094.4236734693877 2773.0134693877553 Q 2101.047306122449 2753.8397959183676 2103.1389795918367 2724.207755102041 Q 2111.8542857142857 2628.339387755102 2101.605085714286 2612.651836734694 Z"/>
    <path d="M 2050.359085714286 2624.8532653061225 Q 2026.4442857142858 2692.8326530612244 2033.416530612245 2757.325918367347 Q 2037.5998775510204 2766.041224489796 2041.7832244897959 2756.628693877551 L 2050.149918367347 2647.51306122449 Z"/>
    <path d="M 2100.140914285714 2624.8532653061225 Q 2124.055714285714 2692.8326530612244 2117.083469387755 2757.325918367347 Q 2112.90012244898 2766.041224489796 2108.716775510204 2756.628693877551 L 2100.350081632653 2647.51306122449 Z"/>
    <path d="M 2054.6818775510205 2773.0134693877553 Q 2051.8929795918366 2835.763673469388 2058.516612244898 2892.2388571428573 Q 2065.4888571428573 2902.697224489796 2073.50693877551 2899.908326530612 L 2069.3235918367345 2835.763673469388 L 2073.8555510204083 2781.7287755102043 Z"/>
    <path d="M 2095.8181224489795 2773.0134693877553 Q 2098.6070204081634 2835.763673469388 2091.983387755102 2892.2388571428573 Q 2085.0111428571427 2902.697224489796 2076.99306122449 2899.908326530612 L 2081.1764081632655 2835.763673469388 L 2076.6444489795917 2781.7287755102043 Z"/>
  </g>
    <rect x="1755" y="2928" width="525" height="62" fill="#FFFDF9" opacity=".94"/>
    <text x="2017.5" y="2968" class="label" text-anchor="middle">돌아서는 순간</text>
  </g><text x="90" y="3040" class="body" >판정 메모  ＿＿＿＿＿＿＿＿＿＿＿＿＿＿＿＿＿＿＿＿＿＿＿＿＿＿＿＿＿＿＿＿＿＿＿＿＿＿＿＿</text><line x1="90" y1="3090" x2="2310" y2="3090" stroke="#C9C1B4" stroke-width="2"/>
  <text x="90" y="3135" class="tiny" >웹툰 스튜디오 공통 캐스팅 표준 v2.0</text>
  <text x="2310" y="3135" class="tiny" text-anchor="end">상대역 합이 통과되어야 최종 캐스팅으로 이동합니다.</text>
</svg>