<?xml version="1.0" encoding="UTF-8"?>
<svg xmlns="http://www.w3.org/2000/svg" xmlns:xlink="http://www.w3.org/1999/xlink" width="2400" height="3200" viewBox="0 0 2400 3200">
  <defs>
    <pattern id="minor-grid" width="720" height="100" patternUnits="userSpaceOnUse">
      <path d="M0 0H720" fill="none" stroke="#c7c9c7" stroke-width="2"/>
    </pattern>
    <g id="scale-panel">
      <rect width="720" height="2000" fill="#f6f6f3"/>
      <rect width="720" height="2000" fill="url(#minor-grid)"/>
      <path d="M0 0H720M0 500H720M0 1000H720M0 1500H720M0 2000H720" fill="none" stroke="#7c817d" stroke-width="4"/>
      <path d="M360 0V2000" fill="none" stroke="#aeb2af" stroke-width="2" stroke-dasharray="16 16"/>
      <path d="M0 2000H720" fill="none" stroke="#202320" stroke-width="10"/>
      <g font-family="Arial, Helvetica, sans-serif" font-size="30" font-weight="700" fill="#555b56" text-anchor="end">
        <text x="700" y="30">200</text><text x="700" y="130">190</text>
        <text x="700" y="230">180</text><text x="700" y="330">170</text>
        <text x="700" y="430">160</text><text x="700" y="530">150</text>
        <text x="700" y="630">140</text><text x="700" y="730">130</text>
        <text x="700" y="830">120</text><text x="700" y="930">110</text>
        <text x="700" y="1030">100</text><text x="700" y="1130">90</text>
        <text x="700" y="1230">80</text><text x="700" y="1330">70</text>
        <text x="700" y="1430">60</text><text x="700" y="1530">50</text>
        <text x="700" y="1630">40</text><text x="700" y="1730">30</text>
        <text x="700" y="1830">20</text><text x="700" y="1930">10</text>
        <text x="700" y="1985">0 cm</text>
      </g>
    </g>
  </defs>
  <rect width="2400" height="3200" fill="#dedfdb"/>
  <rect width="2400" height="230" fill="#171a18"/>
  <text x="70" y="90" font-family="Arial, Helvetica, sans-serif" font-size="54" font-weight="700" fill="#ffffff">COSTUME TEST / ABSOLUTE SCALE</text>
  <text x="70" y="155" font-family="Arial, Helvetica, sans-serif" font-size="30" fill="#bcc1bc">MASTER TEMPLATE v1.0 · 2400 × 3200 px · 10 px = 1 cm</text>
  <text x="2330" y="92" font-family="Arial, Helvetica, sans-serif" font-size="38" font-weight="700" fill="#ffffff" text-anchor="end">CODE: __________</text>
  <text x="2330" y="150" font-family="Arial, Helvetica, sans-serif" font-size="28" fill="#bcc1bc" text-anchor="end">HEIGHT: ______ cm</text>
  <g transform="translate(50 300)"><use xlink:href="#scale-panel"/><text x="360" y="-28" font-family="Arial" font-size="32" font-weight="700" text-anchor="middle">LOOK 01</text></g>
  <g transform="translate(840 300)"><use xlink:href="#scale-panel"/><text x="360" y="-28" font-family="Arial" font-size="32" font-weight="700" text-anchor="middle">LOOK 02</text></g>
  <g transform="translate(1630 300)"><use xlink:href="#scale-panel"/><text x="360" y="-28" font-family="Arial" font-size="32" font-weight="700" text-anchor="middle">LOOK 03</text></g>
  <g font-family="Arial, Helvetica, sans-serif">
    <text x="50" y="2425" font-size="31" font-weight="700" fill="#262a27">COSTUME NOTES — IDENTICAL FACE / BODY / CAMERA / LIGHT</text>
    <g fill="#f6f6f3" stroke="#979c97" stroke-width="4">
      <rect x="50" y="2470" width="720" height="570" rx="10"/>
      <rect x="840" y="2470" width="720" height="570" rx="10"/>
      <rect x="1630" y="2470" width="720" height="570" rx="10"/>
    </g>
    <g font-size="29" fill="#303430">
      <text x="90" y="2540" font-weight="700">LOOK 01</text><text x="90" y="2610">Name / rank  __________________</text><text x="90" y="2675">Color  _______________________</text><text x="90" y="2740">Hair / accessory  _____________</text><text x="90" y="2805">Shoes  _______________________</text><text x="90" y="2870">Scene use  ___________________</text>
      <text x="880" y="2540" font-weight="700">LOOK 02</text><text x="880" y="2610">Name / rank  __________________</text><text x="880" y="2675">Color  _______________________</text><text x="880" y="2740">Hair / accessory  _____________</text><text x="880" y="2805">Shoes  _______________________</text><text x="880" y="2870">Scene use  ___________________</text>
      <text x="1670" y="2540" font-weight="700">LOOK 03</text><text x="1670" y="2610">Name / rank  __________________</text><text x="1670" y="2675">Color  _______________________</text><text x="1670" y="2740">Hair / accessory  _____________</text><text x="1670" y="2805">Shoes  _______________________</text><text x="1670" y="2870">Scene use  ___________________</text>
    </g>
  </g>
  <text x="50" y="3140" font-family="Arial, Helvetica, sans-serif" font-size="25" fill="#5f655f">Standing costume comparison uses the same 0–200 cm grid. Pose tests are saved separately and never replace the absolute-scale board.</text>
</svg>
